<?xml version="1.0" encoding="utf-8"?>
<!-- Generator: Adobe Illustrator 21.0.0, SVG Export Plug-In . SVG Version: 6.00 Build 0)  -->
<svg version="1.1" id="Layer_1" xmlns="http://www.w3.org/2000/svg" xmlns:xlink="http://www.w3.org/1999/xlink" x="0px" y="0px"
	 viewBox="0 0 200 200" style="enable-background:new 0 0 200 200;" xml:space="preserve">
<style type="text/css">
	.st0{fill:none;stroke:#FFFFFF;stroke-width:11;stroke-miterlimit:10;}
	.st1{fill:#ABABAB;}
	.st2{fill:none;stroke:#FFFFFF;stroke-width:15;stroke-miterlimit:10;}
	.st3{display:none;}
	.st4{display:inline;}
	.st5{fill:none;stroke:#000000;stroke-width:15;stroke-miterlimit:10;}
	.st6{fill:none;stroke:#FFFFFF;stroke-width:9;stroke-miterlimit:10;}
	.st7{fill:none;stroke:#FFFFFF;stroke-width:9;stroke-miterlimit:10;stroke-dasharray:11.5716,11.5716;}
	.st8{fill:none;stroke:#FFFFFF;stroke-width:9;stroke-miterlimit:10;stroke-dasharray:6.3774,6.3774;}
	.st9{fill:none;stroke:#FFFFFF;stroke-width:9;stroke-miterlimit:10;stroke-dasharray:13.105,13.105;}
	.st10{fill:none;stroke:#FFFFFF;stroke-width:9;stroke-miterlimit:10;stroke-dasharray:11.3823,11.3823;}
	.st11{fill:none;stroke:#FFFFFF;stroke-width:9;stroke-miterlimit:10;stroke-dasharray:6.8286,6.8286;}
	.st12{fill:none;stroke:#FFFFFF;stroke-width:9;stroke-miterlimit:10;stroke-dasharray:11.8745,11.8745;}
	.st13{fill:none;stroke:#FFFFFF;stroke-width:9;stroke-miterlimit:10;stroke-dasharray:6.8288,6.8288;}
	.st14{fill:none;stroke:#FFFFFF;stroke-width:9;stroke-miterlimit:10;stroke-dasharray:11.8746,11.8746;}
	.st15{fill:none;stroke:#FFFFFF;stroke-width:9;stroke-miterlimit:10;stroke-dasharray:6.3776,6.3776;}
	.st16{fill:none;stroke:#FFFFFF;stroke-width:8;stroke-miterlimit:10;}
</style>
<g id="template">
	<g>
		<g>
			<g>
				<polyline class="st6" points="173.7,11.9 173.7,7.3 169.2,7.3 				"/>
				<line class="st7" x1="160.4" y1="7.3" x2="59.8" y2="7.3"/>
				<polyline class="st6" points="55.5,7.3 50.9,7.3 50.9,11.9 				"/>
				<line class="st8" x1="50.9" y1="16.7" x2="50.9" y2="23.9"/>
				<polyline class="st6" points="50.9,26.3 50.9,30.9 55.5,30.9 				"/>
				<line class="st9" x1="65.3" y1="30.9" x2="139.7" y2="30.9"/>
				<polyline class="st6" points="144.6,30.9 149.1,30.9 149.1,35.4 				"/>
				<line class="st10" x1="149.1" y1="44" x2="149.1" y2="160.3"/>
				<polyline class="st6" points="149.1,164.6 149.1,169.1 153.7,169.1 				"/>
				<line class="st11" x1="158.9" y1="169.1" x2="166.7" y2="169.1"/>
				<polyline class="st6" points="169.9,169.1 173.7,169.1 173.7,165.4 				"/>
				<line class="st12" x1="173.7" y1="155.6" x2="173.7" y2="16.3"/>
			</g>
		</g>
		<g>
			<g>
				<polyline class="st6" points="50.9,34.1 50.9,30.9 46.4,30.9 				"/>
				<line class="st13" x1="41.2" y1="30.9" x2="33.4" y2="30.9"/>
				<polyline class="st6" points="30.8,30.9 26.3,30.9 26.3,35.4 				"/>
				<line class="st14" x1="26.3" y1="44.4" x2="26.3" y2="183.7"/>
				<polyline class="st6" points="26.3,188.1 26.3,192.7 30.8,192.7 				"/>
				<line class="st7" x1="39.6" y1="192.7" x2="140.2" y2="192.7"/>
				<polyline class="st6" points="144.6,192.7 149.1,192.7 149.1,188.1 				"/>
				<line class="st15" x1="149.1" y1="183.3" x2="149.1" y2="176.1"/>
				<polyline class="st6" points="149.1,173.7 149.1,169.1 146.6,169.1 				"/>
			</g>
		</g>
	</g>
</g>
</svg>
