<?xml version="1.0" encoding="utf-8"?>
<!-- Generator: Adobe Illustrator 21.0.0, SVG Export Plug-In . SVG Version: 6.00 Build 0)  -->
<svg version="1.1" id="Layer_1" xmlns="http://www.w3.org/2000/svg" xmlns:xlink="http://www.w3.org/1999/xlink" x="0px" y="0px"
	 viewBox="0 0 200 200" style="enable-background:new 0 0 200 200;" xml:space="preserve">
<style type="text/css">
	.st0{fill:none;stroke:#FFFFFF;stroke-width:11;stroke-miterlimit:10;}
	.st1{fill:#ABABAB;}
	.st2{fill:none;stroke:#FFFFFF;stroke-width:15;stroke-miterlimit:10;}
	.st3{display:none;}
	.st4{display:inline;}
	.st5{fill:none;stroke:#000000;stroke-width:15;stroke-miterlimit:10;}
	.st6{fill:none;stroke:#FFFFFF;stroke-width:9;stroke-miterlimit:10;}
	.st7{fill:none;stroke:#FFFFFF;stroke-width:9;stroke-miterlimit:10;stroke-dasharray:11.5716,11.5716;}
	.st8{fill:none;stroke:#FFFFFF;stroke-width:9;stroke-miterlimit:10;stroke-dasharray:6.3774,6.3774;}
	.st9{fill:none;stroke:#FFFFFF;stroke-width:9;stroke-miterlimit:10;stroke-dasharray:13.105,13.105;}
	.st10{fill:none;stroke:#FFFFFF;stroke-width:9;stroke-miterlimit:10;stroke-dasharray:11.3823,11.3823;}
	.st11{fill:none;stroke:#FFFFFF;stroke-width:9;stroke-miterlimit:10;stroke-dasharray:6.8286,6.8286;}
	.st12{fill:none;stroke:#FFFFFF;stroke-width:9;stroke-miterlimit:10;stroke-dasharray:11.8745,11.8745;}
	.st13{fill:none;stroke:#FFFFFF;stroke-width:9;stroke-miterlimit:10;stroke-dasharray:6.8288,6.8288;}
	.st14{fill:none;stroke:#FFFFFF;stroke-width:9;stroke-miterlimit:10;stroke-dasharray:11.8746,11.8746;}
	.st15{fill:none;stroke:#FFFFFF;stroke-width:9;stroke-miterlimit:10;stroke-dasharray:6.3776,6.3776;}
	.st16{fill:none;stroke:#FFFFFF;stroke-width:8;stroke-miterlimit:10;}
</style>
<g id="Layer_5">
	<g>
		<circle class="st0" cx="28.3" cy="52.4" r="22.2"/>
		<circle class="st1" cx="28.3" cy="52.4" r="12.8"/>
		<circle class="st0" cx="75.9" cy="52.4" r="22.2"/>
		<circle class="st1" cx="75.9" cy="52.4" r="12.8"/>
		<circle class="st0" cx="123.5" cy="52.4" r="22.2"/>
		<circle class="st1" cx="123.5" cy="52.4" r="12.8"/>
		<circle class="st0" cx="171.7" cy="52.4" r="22.2"/>
		<circle class="st1" cx="171.7" cy="52.4" r="12.8"/>
		<circle class="st0" cx="28.3" cy="100" r="22.2"/>
		<circle class="st1" cx="28.3" cy="100" r="12.8"/>
		<circle class="st0" cx="75.9" cy="100" r="22.2"/>
		<circle class="st1" cx="75.9" cy="100" r="12.8"/>
		<circle class="st0" cx="123.5" cy="100" r="22.2"/>
		<circle class="st1" cx="123.5" cy="100" r="12.8"/>
		<circle class="st0" cx="171.7" cy="100" r="22.2"/>
		<circle class="st1" cx="171.7" cy="100" r="12.8"/>
		<circle class="st0" cx="28.3" cy="147.6" r="22.2"/>
		<circle class="st1" cx="28.3" cy="147.6" r="12.8"/>
		<circle class="st0" cx="75.9" cy="147.6" r="22.2"/>
		<circle class="st1" cx="75.9" cy="147.6" r="12.8"/>
		<circle class="st0" cx="123.5" cy="147.6" r="22.2"/>
		<circle class="st1" cx="123.5" cy="147.6" r="12.8"/>
		<circle class="st0" cx="171.7" cy="147.6" r="22.2"/>
		<circle class="st1" cx="171.7" cy="147.6" r="12.8"/>
		<circle class="st1" cx="51.8" cy="52.4" r="6.1"/>
		<circle class="st1" cx="28.3" cy="76.3" r="6.1"/>
		<circle class="st1" cx="77" cy="76.3" r="6.1"/>
		<circle class="st1" cx="124.1" cy="76.3" r="6.1"/>
		<circle class="st1" cx="171.7" cy="76.3" r="6.1"/>
		<circle class="st1" cx="28.3" cy="123.9" r="6.1"/>
		<circle class="st1" cx="77" cy="123.9" r="6.1"/>
		<circle class="st1" cx="124.1" cy="123.9" r="6.1"/>
		<circle class="st1" cx="171.7" cy="123.9" r="6.1"/>
		<circle class="st1" cx="99.4" cy="52.4" r="6.1"/>
		<circle class="st1" cx="147.7" cy="52.4" r="6.1"/>
		<circle class="st1" cx="51.8" cy="98.9" r="6.1"/>
		<circle class="st1" cx="99.4" cy="98.9" r="6.1"/>
		<circle class="st1" cx="147.7" cy="98.9" r="6.1"/>
		<circle class="st1" cx="51.8" cy="146.5" r="6.1"/>
		<circle class="st1" cx="99.4" cy="146.5" r="6.1"/>
		<circle class="st1" cx="147.7" cy="146.5" r="6.1"/>
	</g>
</g>
</svg>
